<svg width="72" height="72" viewBox="0 0 72 72" fill="none" xmlns="http://www.w3.org/2000/svg">
<g id="trolley_6036325 1">
<path id="Vector 20" d="M16.1311 29.2109C18.8 28.7553 24.9962 28 36.7419 28C48.4399 28 53.5326 28.7953 55.4793 29.2459C56.1869 29.4097 56.8225 29.7644 57.409 30.1928L57.5692 30.3099C58.3266 30.8633 58.423 31.9573 57.7739 32.6346C55.7439 34.7527 52.8368 35.7846 49.9173 35.4955C46.2644 35.1338 41.1505 34.7101 37.2366 34.7101C33.1907 34.7101 27.8628 35.1628 24.1917 35.5318C21.4297 35.8095 18.6431 35.188 16.2981 33.7024L13.7229 32.0709C13.3307 31.8224 13.2285 31.295 13.4994 30.918C14.1369 30.0311 15.0543 29.3947 16.1311 29.2109Z" fill="#FFBC57"/>
<path id="Vector 19" d="M6.18254 25.9413L5.71147 26.5419C3.52429 29.3304 3.4911 33.2427 5.63066 36.068V36.068C5.99228 36.5455 6.22268 37.1093 6.29896 37.7034L7.01336 43.2669C7.65691 48.2787 11.9233 52.0323 16.9762 52.0323V52.0323M6.18254 25.9413L16.9762 36.7967M6.18254 25.9413L9 18.3666C9.66667 17.2444 16 15 36 15C56 15 61.5 17.5249 62 18.3666L64.1865 25.9413M16.9762 36.7967C16.9762 36.7967 21.5238 34.4194 36.5 34.4194C50.4643 34.4194 55.4286 36.7967 55.4286 36.7967M16.9762 36.7967L16.0369 39.4671C15.5527 40.8438 16.6539 42.2645 18.1083 42.1445C22.499 41.7823 30.6353 41.1856 36.5 41.1935C42.1718 41.2012 50.0177 41.7801 54.3349 42.1381C55.8027 42.2598 56.9098 40.8142 56.4003 39.4323L55.4286 36.7967M55.4286 36.7967L64.1865 25.9413M64.1865 25.9413L65.5474 27.1897C68.0869 29.519 68.4822 33.3799 66.4675 36.1755V36.1755C66.1738 36.5831 65.9874 37.058 65.9256 37.5565L65.3159 42.4745C64.6391 47.9333 60.0007 52.0323 54.5 52.0323V52.0323M16.9762 52.0323L16.2514 52.9378C14.9413 54.5746 16.1066 57 18.2032 57V57C19.0163 57 19.7786 56.6046 20.2469 55.9399L23 52.0323M16.9762 52.0323H23M23 52.0323H49M49 52.0323L50.3565 55.4017C50.7453 56.3674 51.6819 57 52.723 57V57C54.5302 57 55.7643 55.1727 55.0894 53.4963L54.5 52.0323M49 52.0323H54.5" stroke="#1B1B1B" stroke-width="3" stroke-linecap="round"/>
</g>
</svg>
