<svg width="73" height="72" viewBox="0 0 73 72" fill="none" xmlns="http://www.w3.org/2000/svg">
<g id="packages_5763224 1">
<path id="Vector" d="M70.25 61.3125H34.8125V30.375C34.811 29.0328 34.2772 27.746 33.3281 26.7969C32.379 25.8478 31.0922 25.314 29.75 25.3125H21.875C21.4276 25.312 20.9987 25.1341 20.6823 24.8177C20.3659 24.5013 20.188 24.0724 20.1875 23.625V5.625C20.188 5.1776 20.3659 4.74866 20.6823 4.4323C20.9987 4.11593 21.4276 3.93799 21.875 3.9375H30.3125V5.625C30.314 6.96721 30.8478 8.25403 31.7969 9.20311C32.746 10.1522 34.0328 10.686 35.375 10.6875H37.625C38.9672 10.686 40.254 10.1522 41.2031 9.20311C42.1522 8.25403 42.686 6.96721 42.6875 5.625V3.9375H51.125C51.5724 3.93799 52.0013 4.11593 52.3177 4.4323C52.6341 4.74866 52.812 5.1776 52.8125 5.625V20.25C52.8125 20.6976 52.9903 21.1268 53.3068 21.4432C53.6232 21.7597 54.0524 21.9375 54.5 21.9375C54.9476 21.9375 55.3768 21.7597 55.6932 21.4432C56.0097 21.1268 56.1875 20.6976 56.1875 20.25V5.625C56.186 4.28279 55.6522 2.99597 54.7031 2.04689C53.754 1.0978 52.4672 0.563962 51.125 0.5625H21.875C20.5328 0.563962 19.246 1.0978 18.2969 2.04689C17.3478 2.99597 16.814 4.28279 16.8125 5.625V23.625C16.8182 24.2012 16.9234 24.7721 17.1235 25.3125H6.125C4.78279 25.314 3.49597 25.8478 2.54689 26.7969C1.5978 27.746 1.06396 29.0328 1.0625 30.375V69.75C1.06247 69.9716 1.10609 70.1911 1.19088 70.3958C1.27568 70.6006 1.39998 70.7866 1.55668 70.9433C1.71339 71.1 1.89943 71.2243 2.10418 71.3091C2.30893 71.3939 2.52838 71.4375 2.75 71.4375H70.25C70.4716 71.4375 70.6911 71.3939 70.8958 71.3091C71.1006 71.2243 71.2866 71.1 71.4433 70.9433C71.6 70.7866 71.7243 70.6006 71.8091 70.3958C71.8939 70.1911 71.9375 69.9716 71.9375 69.75V63C71.9375 62.7784 71.8939 62.5589 71.8091 62.3542C71.7243 62.1494 71.6 61.9634 71.4433 61.8067C71.2866 61.65 71.1006 61.5257 70.8958 61.4409C70.6911 61.3561 70.4716 61.3125 70.25 61.3125ZM39.3125 5.625C39.312 6.0724 39.1341 6.50134 38.8177 6.8177C38.5013 7.13407 38.0724 7.31201 37.625 7.3125H35.375C34.9276 7.31201 34.4987 7.13407 34.1823 6.8177C33.8659 6.50134 33.688 6.0724 33.6875 5.625V3.9375H39.3125V5.625ZM47.1875 64.6875V68.0625H25.8125V64.6875H47.1875ZM15.125 28.6875H20.75V30.375C20.7495 30.8224 20.5716 31.2513 20.2552 31.5677C19.9388 31.8841 19.5099 32.062 19.0625 32.0625H16.8125C16.3651 32.062 15.9362 31.8841 15.6198 31.5677C15.3034 31.2513 15.1255 30.8224 15.125 30.375V28.6875ZM4.4375 30.375C4.43799 29.9276 4.61593 29.4987 4.9323 29.1823C5.24866 28.8659 5.6776 28.688 6.125 28.6875H11.75V30.375C11.7515 31.7172 12.2853 33.004 13.2344 33.9531C14.1835 34.9022 15.4703 35.436 16.8125 35.4375H19.0625C20.4047 35.436 21.6915 34.9022 22.6406 33.9531C23.5897 33.004 24.1235 31.7172 24.125 30.375V28.6875H29.75C30.1974 28.688 30.6263 28.8659 30.9427 29.1823C31.2591 29.4987 31.437 29.9276 31.4375 30.375V61.3125H4.4375V30.375ZM4.4375 64.6875H22.4375V68.0625H4.4375V64.6875ZM68.5625 68.0625H50.5625V64.6875H68.5625V68.0625Z" fill="#BFBFBF"/>
<path id="Vector_2" d="M47.75 12.9375H39.875C39.4274 12.9375 38.9982 13.1153 38.6818 13.4318C38.3653 13.7482 38.1875 14.1774 38.1875 14.625C38.1875 15.0726 38.3653 15.5018 38.6818 15.8182C38.9982 16.1347 39.4274 16.3125 39.875 16.3125H47.75C48.1976 16.3125 48.6268 16.1347 48.9432 15.8182C49.2597 15.5018 49.4375 15.0726 49.4375 14.625C49.4375 14.1774 49.2597 13.7482 48.9432 13.4318C48.6268 13.1153 48.1976 12.9375 47.75 12.9375Z" fill="#BFBFBF"/>
<path id="Vector_3" d="M47.75 18.5625H39.875C39.4274 18.5625 38.9982 18.7403 38.6818 19.0568C38.3653 19.3732 38.1875 19.8024 38.1875 20.25C38.1875 20.6976 38.3653 21.1268 38.6818 21.4432C38.9982 21.7597 39.4274 21.9375 39.875 21.9375H47.75C48.1976 21.9375 48.6268 21.7597 48.9432 21.4432C49.2597 21.1268 49.4375 20.6976 49.4375 20.25C49.4375 19.8024 49.2597 19.3732 48.9432 19.0568C48.6268 18.7403 48.1976 18.5625 47.75 18.5625Z" fill="#BFBFBF"/>
<path id="Vector_4" d="M17.375 52.3125H25.25C25.6976 52.3125 26.1268 52.1347 26.4432 51.8182C26.7597 51.5018 26.9375 51.0726 26.9375 50.625C26.9375 50.1774 26.7597 49.7482 26.4432 49.4318C26.1268 49.1153 25.6976 48.9375 25.25 48.9375H17.375C16.9274 48.9375 16.4982 49.1153 16.1818 49.4318C15.8653 49.7482 15.6875 50.1774 15.6875 50.625C15.6875 51.0726 15.8653 51.5018 16.1818 51.8182C16.4982 52.1347 16.9274 52.3125 17.375 52.3125Z" fill="#BFBFBF"/>
<path id="Vector_5" d="M26.9375 56.25C26.9375 56.0284 26.8939 55.8089 26.8091 55.6042C26.7243 55.3994 26.6 55.2134 26.4433 55.0567C26.2866 54.9 26.1006 54.7757 25.8958 54.6909C25.6911 54.6061 25.4716 54.5625 25.25 54.5625H17.375C16.9274 54.5625 16.4982 54.7403 16.1818 55.0568C15.8653 55.3732 15.6875 55.8024 15.6875 56.25C15.6875 56.6976 15.8653 57.1268 16.1818 57.4432C16.4982 57.7597 16.9274 57.9375 17.375 57.9375H25.25C25.4716 57.9375 25.6911 57.8939 25.8958 57.8091C26.1006 57.7243 26.2866 57.6 26.4433 57.4433C26.6 57.2866 26.7243 57.1006 26.8091 56.8958C26.8939 56.6911 26.9375 56.4716 26.9375 56.25Z" fill="#BFBFBF"/>
<path id="Vector_6" d="M66.875 25.3125H43.25C41.9078 25.314 40.621 25.8478 39.6719 26.7969C38.7228 27.746 38.189 29.0328 38.1875 30.375V52.875C38.189 54.2172 38.7228 55.504 39.6719 56.4531C40.621 57.4022 41.9078 57.936 43.25 57.9375H66.875C68.2172 57.936 69.504 57.4022 70.4531 56.4531C71.4022 55.504 71.936 54.2172 71.9375 52.875V30.375C71.936 29.0328 71.4022 27.746 70.4531 26.7969C69.504 25.8478 68.2172 25.314 66.875 25.3125ZM49.1562 30.9375V30.375C49.1562 30.002 49.3044 29.6444 49.5681 29.3806C49.8319 29.1169 50.1895 28.9688 50.5625 28.9688C50.9355 28.9688 51.2931 29.1169 51.5569 29.3806C51.8206 29.6444 51.9688 30.002 51.9688 30.375V30.9375C51.9691 31.3104 52.1174 31.6678 52.381 31.9315C52.6447 32.1951 53.0021 32.3434 53.375 32.3438H56.75C57.1229 32.3434 57.4803 32.1951 57.744 31.9315C58.0076 31.6678 58.1559 31.3104 58.1562 30.9375V30.375C58.1562 30.002 58.3044 29.6444 58.5681 29.3806C58.8319 29.1169 59.1895 28.9688 59.5625 28.9688C59.9355 28.9688 60.2931 29.1169 60.5569 29.3806C60.8206 29.6444 60.9688 30.002 60.9688 30.375V30.9375C60.9675 32.056 60.5227 33.1284 59.7318 33.9193C58.9409 34.7102 57.8685 35.155 56.75 35.1562H53.375C52.2565 35.155 51.1841 34.7102 50.3932 33.9193C49.6023 33.1284 49.1575 32.056 49.1562 30.9375ZM65.75 53.1562H57.875C57.502 53.1562 57.1444 53.0081 56.8806 52.7444C56.6169 52.4806 56.4688 52.123 56.4688 51.75C56.4688 51.377 56.6169 51.0194 56.8806 50.7556C57.1444 50.4919 57.502 50.3438 57.875 50.3438H65.75C66.123 50.3438 66.4806 50.4919 66.7444 50.7556C67.0081 51.0194 67.1562 51.377 67.1562 51.75C67.1562 52.123 67.0081 52.4806 66.7444 52.7444C66.4806 53.0081 66.123 53.1562 65.75 53.1562ZM65.75 47.5312H57.875C57.502 47.5312 57.1444 47.3831 56.8806 47.1194C56.6169 46.8556 56.4688 46.498 56.4688 46.125C56.4688 45.752 56.6169 45.3944 56.8806 45.1306C57.1444 44.8669 57.502 44.7188 57.875 44.7188H65.75C66.123 44.7188 66.4806 44.8669 66.7444 45.1306C67.0081 45.3944 67.1562 45.752 67.1562 46.125C67.1562 46.498 67.0081 46.8556 66.7444 47.1194C66.4806 47.3831 66.123 47.5312 65.75 47.5312Z" fill="#E11E29"/>
</g>
</svg>
