<svg width="72" height="72" viewBox="0 0 72 72" fill="none" xmlns="http://www.w3.org/2000/svg">
<g id="papers_3288551 1">
<path id="Vector" d="M50.0625 0.5625C46.3912 0.5625 42.8023 1.65117 39.7497 3.69085C36.6971 5.73052 34.3179 8.62959 32.913 12.0214C31.508 15.4133 31.1404 19.1456 31.8567 22.7464C32.5729 26.3471 34.3408 29.6547 36.9368 32.2507C39.5328 34.8467 42.8404 36.6146 46.4411 37.3308C50.0419 38.0471 53.7742 37.6795 57.1661 36.2745C60.5579 34.8696 63.457 32.4904 65.4967 29.4378C67.5363 26.3852 68.625 22.7963 68.625 19.125C68.6194 14.2037 66.6618 9.4855 63.1819 6.00558C59.702 2.52566 54.9839 0.568157 50.0625 0.5625ZM58.5 25.875C58.5 26.3226 58.3222 26.7518 58.0058 27.0682C57.6893 27.3847 57.2601 27.5625 56.8125 27.5625H43.3125C42.865 27.5625 42.4357 27.3847 42.1193 27.0682C41.8028 26.7518 41.625 26.3226 41.625 25.875V12.375C41.625 11.9274 41.8028 11.4982 42.1193 11.1818C42.4357 10.8653 42.865 10.6875 43.3125 10.6875H56.8125C57.2601 10.6875 57.6893 10.8653 58.0058 11.1818C58.3222 11.4982 58.5 11.9274 58.5 12.375V25.875Z" fill="#FFBC57"/>
<path id="Vector_2" d="M45 14.0625H55.125V24.1875H45V14.0625Z" fill="#FFBC57"/>
<path id="Vector_3" d="M11.8125 60.1875H43.3125C43.7601 60.1875 44.1893 60.0097 44.5057 59.6932C44.8222 59.3768 45 58.9476 45 58.5C45 58.0524 44.8222 57.6232 44.5057 57.3068C44.1893 56.9903 43.7601 56.8125 43.3125 56.8125H11.8125C11.3649 56.8125 10.9357 56.9903 10.6193 57.3068C10.3028 57.6232 10.125 58.0524 10.125 58.5C10.125 58.9476 10.3028 59.3768 10.6193 59.6932C10.9357 60.0097 11.3649 60.1875 11.8125 60.1875Z" fill="#1B1B1B"/>
<path id="Vector_4" d="M11.8125 48.9375H32.0625C32.5101 48.9375 32.9393 48.7597 33.2557 48.4432C33.5722 48.1268 33.75 47.6976 33.75 47.25C33.75 46.8024 33.5722 46.3732 33.2557 46.0568C32.9393 45.7403 32.5101 45.5625 32.0625 45.5625H11.8125C11.3649 45.5625 10.9357 45.7403 10.6193 46.0568C10.3028 46.3732 10.125 46.8024 10.125 47.25C10.125 47.6976 10.3028 48.1268 10.6193 48.4432C10.9357 48.7597 11.3649 48.9375 11.8125 48.9375Z" fill="#1B1B1B"/>
<path id="Vector_5" d="M11.8125 37.6875H32.0625C32.5101 37.6875 32.9393 37.5097 33.2557 37.1932C33.5722 36.8768 33.75 36.4476 33.75 36C33.75 35.5524 33.5722 35.1232 33.2557 34.8068C32.9393 34.4903 32.5101 34.3125 32.0625 34.3125H11.8125C11.3649 34.3125 10.9357 34.4903 10.6193 34.8068C10.3028 35.1232 10.125 35.5524 10.125 36C10.125 36.4476 10.3028 36.8768 10.6193 37.1932C10.9357 37.5097 11.3649 37.6875 11.8125 37.6875Z" fill="#1B1B1B"/>
<path id="Vector_6" d="M11.8125 26.4375H26.4375C26.8851 26.4375 27.3143 26.2597 27.6307 25.9432C27.9472 25.6268 28.125 25.1976 28.125 24.75C28.125 24.3024 27.9472 23.8732 27.6307 23.5568C27.3143 23.2403 26.8851 23.0625 26.4375 23.0625H11.8125C11.3649 23.0625 10.9357 23.2403 10.6193 23.5568C10.3028 23.8732 10.125 24.3024 10.125 24.75C10.125 25.1976 10.3028 25.6268 10.6193 25.9432C10.9357 26.2597 11.3649 26.4375 11.8125 26.4375Z" fill="#1B1B1B"/>
<path id="Vector_7" d="M11.8125 15.1875H26.4375C26.8851 15.1875 27.3143 15.0097 27.6307 14.6932C27.9472 14.3768 28.125 13.9476 28.125 13.5C28.125 13.0524 27.9472 12.6232 27.6307 12.3068C27.3143 11.9903 26.8851 11.8125 26.4375 11.8125H11.8125C11.3649 11.8125 10.9357 11.9903 10.6193 12.3068C10.3028 12.6232 10.125 13.0524 10.125 13.5C10.125 13.9476 10.3028 14.3768 10.6193 14.6932C10.9357 15.0097 11.3649 15.1875 11.8125 15.1875Z" fill="#1B1B1B"/>
<path id="Vector_8" d="M59.625 38.8384V45.882L50.6914 42.3079C50.2885 42.1481 49.8399 42.1481 49.437 42.3079L40.5 45.882V38.8384C39.316 38.2626 38.1865 37.581 37.125 36.8021V48.375C37.125 48.6508 37.1925 48.9224 37.3217 49.166C37.451 49.4097 37.6379 49.6179 37.8663 49.7726C38.0946 49.9272 38.3574 50.0235 38.6316 50.0531C38.9058 50.0826 39.1831 50.0446 39.4391 49.9422L50.0625 45.6919L60.6836 49.9422C60.9398 50.045 61.2173 50.0835 61.4918 50.0542C61.7663 50.0248 62.0294 49.9286 62.2581 49.7739C62.4867 49.6192 62.674 49.4108 62.8033 49.1669C62.9327 48.923 63.0002 48.6511 63 48.375V36.801C61.9385 37.5802 60.8089 38.2621 59.625 38.8384Z" fill="#1B1B1B"/>
<path id="Vector_9" d="M48.375 50.0029V66.375C48.375 66.8226 48.1972 67.2518 47.8807 67.5682C47.5643 67.8847 47.1351 68.0625 46.6875 68.0625H8.4375C7.98995 68.0625 7.56072 67.8847 7.24426 67.5682C6.92779 67.2518 6.75 66.8226 6.75 66.375V5.625C6.75 5.17745 6.92779 4.74823 7.24426 4.43176C7.56072 4.11529 7.98995 3.9375 8.4375 3.9375H34.2698C35.513 2.64813 36.9085 1.51481 38.4255 0.5625H8.4375C7.0953 0.563989 5.8085 1.09784 4.85942 2.04692C3.91034 2.996 3.37649 4.2828 3.375 5.625V66.375C3.37649 67.7172 3.91034 69.004 4.85942 69.9531C5.8085 70.9022 7.0953 71.436 8.4375 71.4375H46.6875C48.0297 71.436 49.3165 70.9022 50.2656 69.9531C51.2147 69.004 51.7485 67.7172 51.75 66.375V50.0029L50.0625 49.3279L48.375 50.0029Z" fill="#1B1B1B"/>
</g>
</svg>
